<?xml version="1.0" encoding="UTF-8" standalone="no"?>
<!-- Created with Inkscape (http://www.inkscape.org/) -->
<svg
   xmlns:dc="http://purl.org/dc/elements/1.1/"
   xmlns:cc="http://web.resource.org/cc/"
   xmlns:rdf="http://www.w3.org/1999/02/22-rdf-syntax-ns#"
   xmlns:svg="http://www.w3.org/2000/svg"
   xmlns="http://www.w3.org/2000/svg"
   xmlns:xlink="http://www.w3.org/1999/xlink"
   xmlns:sodipodi="http://sodipodi.sourceforge.net/DTD/sodipodi-0.dtd"
   xmlns:inkscape="http://www.inkscape.org/namespaces/inkscape"
   width="300.00171"
   height="90"
   id="svg2"
   sodipodi:version="0.32"
   inkscape:version="0.45.1"
   sodipodi:docbase="/home/david/Proyectos/vmdgui-mwng/resource/default/images"
   sodipodi:docname="logo.svg"
   version="1.0"
   inkscape:output_extension="org.inkscape.output.svg.inkscape">
  <sodipodi:namedview
     id="base"
     pagecolor="#ffffff"
     bordercolor="#666666"
     borderopacity="1.0"
     inkscape:pageopacity="0.0"
     inkscape:pageshadow="2"
     inkscape:zoom="1.4377041"
     inkscape:cx="181.39994"
     inkscape:cy="74.880753"
     inkscape:document-units="px"
     inkscape:current-layer="layer1"
     width="300.00171px"
     height="90px"
     inkscape:window-width="875"
     inkscape:window-height="628"
     inkscape:window-x="239"
     inkscape:window-y="83" />
  <defs
     id="defs4">
    <linearGradient
       id="linearGradient4849">
      <stop
         style="stop-color:#ffffff;stop-opacity:1;"
         offset="0"
         id="stop4851" />
      <stop
         style="stop-color:#000080;stop-opacity:1;"
         offset="1"
         id="stop4853" />
    </linearGradient>
    <radialGradient
       inkscape:collect="always"
       xlink:href="#linearGradient4849"
       id="radialGradient4855"
       cx="351.43045"
       cy="181.84639"
       fx="351.43045"
       fy="181.84639"
       r="29.079693"
       gradientTransform="matrix(1,0,0,1.0554362,0,-10.080864)"
       gradientUnits="userSpaceOnUse" />
    <radialGradient
       inkscape:collect="always"
       xlink:href="#linearGradient4849"
       id="radialGradient4912"
       gradientUnits="userSpaceOnUse"
       gradientTransform="matrix(1,0,0,1.0554362,0,-10.080864)"
       cx="351.43045"
       cy="181.84639"
       fx="351.43045"
       fy="181.84639"
       r="29.079693" />
    <radialGradient
       inkscape:collect="always"
       xlink:href="#linearGradient4849"
       id="radialGradient4993"
       gradientUnits="userSpaceOnUse"
       gradientTransform="matrix(1,0,0,1.0554362,0,-10.080864)"
       cx="351.43045"
       cy="181.84639"
       fx="351.43045"
       fy="181.84639"
       r="29.079693" />
  </defs>
  <metadata
     id="metadata7">
    <rdf:RDF>
      <cc:Work
         rdf:about="">
        <dc:format>image/svg+xml</dc:format>
        <dc:type
           rdf:resource="http://purl.org/dc/dcmitype/StillImage" />
        <dc:title>3DMolVis Logo</dc:title>
        <dc:date>31/enero/2008</dc:date>
        <dc:creator>
          <cc:Agent>
            <dc:title>David Suárez Pascal</dc:title>
          </cc:Agent>
        </dc:creator>
        <dc:subject>
          <rdf:Bag>
            <rdf:li>logo</rdf:li>
            <rdf:li>3dmolvis</rdf:li>
          </rdf:Bag>
        </dc:subject>
        <cc:license
           rdf:resource="http://web.resource.org/cc/PublicDomain" />
      </cc:Work>
      <cc:License
         rdf:about="http://web.resource.org/cc/PublicDomain">
        <cc:permits
           rdf:resource="http://web.resource.org/cc/Reproduction" />
        <cc:permits
           rdf:resource="http://web.resource.org/cc/Distribution" />
        <cc:permits
           rdf:resource="http://web.resource.org/cc/DerivativeWorks" />
      </cc:License>
    </rdf:RDF>
  </metadata>
  <g
     inkscape:label="Capa 1"
     id="layer1"
     inkscape:groupmode="layer"
     transform="translate(-105.81049,-138.3713)">
    <g
       id="g4914"
       transform="matrix(0.5522582,0,0,0.5522582,63.052395,102.6822)"
       inkscape:export-filename="/home/david/Proyectos/vmdgui-mwng/resource/default/images/logo.png"
       inkscape:export-xdpi="90"
       inkscape:export-ydpi="90">
      <g
         id="g2532">
        <g
           id="g2534"
           style="font-size:12px;font-style:normal;font-weight:normal;fill:#008000;fill-opacity:1;stroke:none;stroke-width:1px;stroke-linecap:butt;stroke-linejoin:miter;stroke-opacity:1;font-family:Bitstream Vera Sans">
          <path
             d="M 99.92411,75.701477 C 105.08033,74.201581 110.07251,73.076582 114.90067,72.326477 L 121.97174,79.397545 C 117.14358,80.14765 112.1514,81.272649 106.99518,82.772545 L 99.92411,75.701477 z "
             id="path2536" />
          <path
             d="M 114.90067,72.326477 C 119.77563,71.576584 124.55688,71.201584 129.24442,71.201477 L 136.31549,78.272545 C 131.62795,78.272652 126.8467,78.647652 121.97174,79.397545 L 114.90067,72.326477 z "
             id="path2538" />
          <path
             d="M 129.24442,71.201477 C 138.52561,71.201584 145.88498,73.264082 151.32255,77.388977 L 158.39362,84.460045 C 152.95605,80.33515 145.59668,78.272652 136.31549,78.272545 L 129.24442,71.201477 z "
             id="path2540" />
          <path
             d="M 151.32255,77.388977 C 152.18752,78.045183 152.98368,78.736972 153.71106,79.464344 L 160.78212,86.535411 C 160.05475,85.808039 159.25858,85.116251 158.39362,84.460045 L 151.32255,77.388977 z "
             id="path2542" />
          <path
             d="M 153.71106,79.464344 C 157.55615,83.309439 159.47873,88.148896 159.4788,93.982727 L 166.54987,101.05379 C 166.5498,95.219964 164.62722,90.380507 160.78212,86.535411 L 153.71106,79.464344 z "
             id="path2544" />
          <path
             d="M 159.4788,93.982727 C 159.47872,100.77968 157.32247,106.61561 153.01005,111.49054 L 160.08112,118.56161 C 164.39354,113.68668 166.54979,107.85075 166.54987,101.05379 L 159.4788,93.982727 z "
             id="path2546" />
          <path
             d="M 153.01005,111.49054 C 148.74435,116.3656 142.83811,119.69372 135.2913,121.47491 L 142.36237,128.54598 C 149.90918,126.76479 155.81542,123.43667 160.08112,118.56161 L 153.01005,111.49054 z "
             id="path2548" />
          <path
             d="M 135.2913,121.47491 C 140.25922,122.89438 144.11617,124.97711 146.86214,127.72308 L 153.93321,134.79415 C 151.18723,132.04817 147.33028,129.96545 142.36237,128.54598 L 135.2913,121.47491 z "
             id="path2550" />
          <path
             d="M 146.86214,127.72308 C 147.38076,128.2417 147.85975,128.78398 148.29911,129.34991 L 155.37018,136.42098 C 154.93082,135.85504 154.45183,135.31277 153.93321,134.79415 L 146.86214,127.72308 z "
             id="path2552" />
          <path
             d="M 148.29911,129.34991 C 151.06466,132.91246 152.44747,137.62339 152.44755,143.48273 L 159.51862,150.5538 C 159.51854,144.69446 158.13573,139.98353 155.37018,136.42098 L 148.29911,129.34991 z "
             id="path2554" />
          <path
             d="M 152.44755,143.48273 C 152.44747,149.10776 151.0881,154.38119 148.36942,159.30304 L 155.44049,166.37411 C 158.15917,161.45226 159.51854,156.17883 159.51862,150.5538 L 152.44755,143.48273 z "
             id="path2556" />
          <path
             d="M 148.36942,159.30304 C 145.69748,164.22493 141.8303,168.46711 136.76786,172.0296 L 143.83893,179.10067 C 148.90137,175.53818 152.76855,171.296 155.44049,166.37411 L 148.36942,159.30304 z "
             id="path2558" />
          <path
             d="M 136.76786,172.0296 C 132.92405,174.74836 128.33031,176.76398 122.98661,178.07648 L 130.05768,185.14755 C 135.40138,183.83505 139.99512,181.81943 143.83893,179.10067 L 136.76786,172.0296 z "
             id="path2560" />
          <path
             d="M 122.98661,178.07648 C 117.64282,179.43585 111.47876,180.11554 104.49442,180.11554 L 111.56549,187.18661 C 118.54983,187.18661 124.71389,186.50692 130.05768,185.14755 L 122.98661,178.07648 z "
             id="path2562" />
          <path
             d="M 104.49442,180.11554 C 100.08815,180.11554 95.635029,179.67023 91.135048,178.7796 L 98.206116,185.85067 C 102.7061,186.7413 107.15922,187.18661 111.56549,187.18661 L 104.49442,180.11554 z "
             id="path2564" />
          <path
             d="M 91.135048,178.7796 C 86.635038,177.93585 82.06473,176.64679 77.42411,174.91241 L 84.495178,181.98348 C 89.135798,183.71786 93.706106,185.00692 98.206116,185.85067 L 91.135048,178.7796 z "
             id="path2566" />
          <path
             d="M 77.42411,174.91241 L 80.025673,161.48273 L 87.096741,168.5538 L 84.495178,181.98348 L 77.42411,174.91241 z "
             id="path2568" />
          <path
             d="M 80.025673,161.48273 C 84.431916,163.92024 88.861599,165.74836 93.314735,166.9671 L 100.3858,174.03817 C 95.932667,172.81943 91.502984,170.99131 87.096741,168.5538 L 80.025673,161.48273 z "
             id="path2570" />
          <path
             d="M 93.314735,166.9671 C 97.814715,168.13899 102.40846,168.72492 107.09599,168.72491 L 114.16706,175.79598 C 109.47953,175.79599 104.88578,175.21006 100.3858,174.03817 L 93.314735,166.9671 z "
             id="path2572" />
          <path
             d="M 107.09599,168.72491 C 116.33032,168.72492 123.80688,166.35774 129.52567,161.62335 L 136.59674,168.69442 C 130.87795,173.42881 123.40139,175.79599 114.16706,175.79598 L 107.09599,168.72491 z "
             id="path2574" />
          <path
             d="M 129.52567,161.62335 C 135.29124,156.84212 138.17405,150.65463 138.17411,143.06085 L 145.24518,150.13192 C 145.24512,157.7257 142.36231,163.91319 136.59674,168.69442 L 129.52567,161.62335 z "
             id="path2576" />
          <path
             d="M 138.17411,143.06085 C 138.17406,139.03702 136.92855,135.77962 134.43759,133.28865 L 141.50865,140.35972 C 143.99962,142.85069 145.24513,146.10808 145.24518,150.13192 L 138.17411,143.06085 z "
             id="path2578" />
          <path
             d="M 134.43759,133.28865 C 133.91069,132.76176 133.32808,132.26916 132.68974,131.81085 L 139.76081,138.88192 C 140.39915,139.34023 140.98176,139.83283 141.50865,140.35972 L 134.43759,133.28865 z "
             id="path2580" />
          <path
             d="M 132.68974,131.81085 C 129.03343,129.13903 123.80688,127.80309 117.01005,127.80304 L 124.08112,134.87411 C 130.87795,134.87416 136.1045,136.2101 139.76081,138.88192 L 132.68974,131.81085 z "
             id="path2582" />
          <path
             d="M 117.01005,127.80304 L 104.77567,127.80304 L 111.84674,134.87411 L 124.08112,134.87411 L 117.01005,127.80304 z "
             id="path2584" />
          <path
             d="M 104.77567,127.80304 L 106.95536,116.27179 L 114.02643,123.34286 L 111.84674,134.87411 L 104.77567,127.80304 z "
             id="path2586" />
          <path
             d="M 106.95536,116.27179 L 119.89286,116.27179 L 126.96393,123.34286 L 114.02643,123.34286 L 106.95536,116.27179 z "
             id="path2588" />
          <path
             d="M 119.89286,116.27179 C 127.67406,116.27185 133.79124,114.4906 138.24442,110.92804 L 145.31549,117.99911 C 140.86231,121.56167 134.74513,123.34292 126.96393,123.34286 L 119.89286,116.27179 z "
             id="path2590" />
          <path
             d="M 138.24442,110.92804 C 142.74436,107.36561 144.99436,102.53749 144.99442,96.443665 L 152.06549,103.51473 C 152.06543,109.60856 149.81543,114.43668 145.31549,117.99911 L 138.24442,110.92804 z "
             id="path2592" />
          <path
             d="M 144.99442,96.443665 C 144.99437,92.778274 143.85901,89.810253 141.58836,87.539597 L 148.65942,94.610664 C 150.93008,96.881321 152.06544,99.849342 152.06549,103.51473 L 144.99442,96.443665 z "
             id="path2594" />
          <path
             d="M 141.58836,87.539597 C 141.12946,87.080698 140.62419,86.650284 140.07255,86.248352 L 147.14362,93.31942 C 147.69526,93.721351 148.20052,94.151766 148.65942,94.610664 L 141.58836,87.539597 z "
             id="path2596" />
          <path
             d="M 140.07255,86.248352 C 136.79124,83.810946 132.17406,82.592198 126.22099,82.592102 L 133.29206,89.66317 C 139.24513,89.663266 143.86231,90.882014 147.14362,93.31942 L 140.07255,86.248352 z "
             id="path2598" />
          <path
             d="M 126.22099,82.592102 C 121.72094,82.592198 117.10376,83.084385 112.36942,84.068665 L 119.44049,91.139733 C 124.17483,90.155453 128.79201,89.663266 133.29206,89.66317 L 126.22099,82.592102 z "
             id="path2600" />
          <path
             d="M 112.36942,84.068665 C 107.68189,85.006258 102.8069,86.435944 97.744423,88.357727 L 104.81549,95.428795 C 109.87797,93.507012 114.75296,92.077326 119.44049,91.139733 L 112.36942,84.068665 z "
             id="path2602" />
          <path
             d="M 97.744423,88.357727 L 99.92411,75.701477 L 106.99518,82.772545 L 104.81549,95.428795 L 97.744423,88.357727 z "
             id="path2604" />
        </g>
        <path
           id="text2160"
           d="M 99.92411,75.701477 C 105.08033,74.201581 110.07251,73.076582 114.90067,72.326477 C 119.77563,71.576584 124.55688,71.201584 129.24442,71.201477 C 138.52561,71.201584 145.88498,73.264082 151.32255,77.388977 C 156.75997,81.514074 159.47872,87.045318 159.4788,93.982727 C 159.47872,100.77968 157.32247,106.61561 153.01005,111.49054 C 148.74435,116.3656 142.83811,119.69372 135.2913,121.47491 C 141.19748,123.16247 145.53342,125.78747 148.29911,129.34991 C 151.06466,132.91246 152.44747,137.62339 152.44755,143.48273 C 152.44747,149.10776 151.0881,154.38119 148.36942,159.30304 C 145.69748,164.22493 141.8303,168.46711 136.76786,172.0296 C 132.92405,174.74836 128.33031,176.76398 122.98661,178.07648 C 117.64282,179.43585 111.47876,180.11554 104.49442,180.11554 C 100.08815,180.11554 95.635029,179.67023 91.135048,178.7796 C 86.635038,177.93585 82.06473,176.64679 77.42411,174.91241 L 80.025673,161.48273 C 84.431916,163.92024 88.861599,165.74836 93.314735,166.9671 C 97.814715,168.13899 102.40846,168.72492 107.09599,168.72491 C 116.33032,168.72492 123.80688,166.35774 129.52567,161.62335 C 135.29124,156.84212 138.17405,150.65463 138.17411,143.06085 C 138.17405,138.18589 136.34593,134.4359 132.68974,131.81085 C 129.03343,129.13903 123.80688,127.80309 117.01005,127.80304 L 104.77567,127.80304 L 106.95536,116.27179 L 119.89286,116.27179 C 127.67406,116.27185 133.79124,114.4906 138.24442,110.92804 C 142.74436,107.36561 144.99436,102.53749 144.99442,96.443665 C 144.99436,92.037501 143.35373,88.639066 140.07255,86.248352 C 136.79124,83.810946 132.17406,82.592198 126.22099,82.592102 C 121.72094,82.592198 117.10376,83.084385 112.36942,84.068665 C 107.68189,85.006258 102.8069,86.435944 97.744423,88.357727 L 99.92411,75.701477"
           style="font-size:12px;font-style:normal;font-weight:normal;fill:#008000;fill-opacity:1;stroke:none;stroke-width:1px;stroke-linecap:butt;stroke-linejoin:miter;stroke-opacity:1;font-family:Bitstream Vera Sans" />
      </g>
      <g
         id="g4893">
        <path
           sodipodi:type="arc"
           style="opacity:1;fill:url(#radialGradient4993);fill-opacity:1;stroke:#000000;stroke-width:0.062;stroke-miterlimit:4;stroke-dasharray:none;stroke-opacity:1"
           id="path3878"
           sodipodi:cx="351.43045"
           sodipodi:cy="181.84639"
           sodipodi:rx="29.017193"
           sodipodi:ry="30.629259"
           d="M 380.44764 181.84639 A 29.017193 30.629259 0 1 1  322.41326,181.84639 A 29.017193 30.629259 0 1 1  380.44764 181.84639 z"
           transform="translate(-6.4482652,-16.606062)" />
        <g
           transform="matrix(5.9610917e-2,0,0,6.4224642e-2,510.80612,159.41451)"
           id="g2870"
           style="stroke:#000000;stroke-width:1.00202358;stroke-miterlimit:4;stroke-dasharray:none;stroke-opacity:1">
          <g
             id="g2851"
             style="stroke:#000000;stroke-width:1.00202358;stroke-miterlimit:4;stroke-dasharray:none;stroke-opacity:1">
            <path
               d="M 132.46534,427.10202 C 131.68895,403.2261 133.67105,384.44177 134.90866,360.63504 C 135.1854,355.46936 127.75973,352.18699 126.78347,349.11218 C 120.21106,328.31877 104.79857,355.66153 102.53858,363.00264 C 98.856499,374.93291 96.688759,388.43133 96.788682,400.95351 C 96.91168,415.85096 88.140706,412.41095 93.075769,426.97017"
               style="fill:#bf0000;stroke:#000000;stroke-width:1.00202358;stroke-miterlimit:4;stroke-dasharray:none;stroke-opacity:1"
               id="path141" />
            <path
               d="M 99.980567,-165.39319 C 92.489863,-133.91412 94.64416,-80.4915 156.87819,-15.276052 C 218.45129,49.233495 376.0277,86.846127 413.30211,143.23817 C 431.23594,170.35801 434.24157,136.69651 434.89497,124.94304 C 435.53299,113.45094 440.83705,89.651894 396.19077,65.414691 C 344.03429,37.103364 204.82988,-40.458759 204.82988,-40.458759 C 204.82988,-40.458759 126.07611,-86.905479 114.08734,-165.42233 M 408.21329,390.71438 C 426.14713,417.83422 429.15275,384.17272 429.80616,372.41157 C 430.44417,360.91945 435.74823,337.13579 391.10197,312.89858 C 338.94547,284.58726 199.74106,207.01745 199.74106,207.01745 C 199.74106,207.01745 100.24016,148.34236 107.88875,51.378176 C 107.88875,51.378176 51.020115,126.60344 151.78938,232.20016 C 213.36248,296.71739 370.93889,334.31466 408.21329,390.71438 z "
               style="fill:#8f0000;stroke:#000000;stroke-width:1.00202358;stroke-miterlimit:4;stroke-dasharray:none;stroke-opacity:1"
               id="path133" />
            <path
               d="M 244.47957,99.721905 C 244.47957,99.721905 383.64554,105.65629 384.04527,105.67166 C 391.11734,105.97145 404.70031,102.38161 404.82331,93.487721 C 405.03855,77.029792 371.86902,80.196848 361.57608,79.758687 C 343.25021,78.943862 324.92433,78.129037 306.59846,77.329586 C 301.4174,77.106662 238.01478,77.813868 236.95397,74.254774 L 244.47957,99.721905 z M 272.76015,-124.66247 L 412.44884,-124.66247 L 423.93326,-124.66247 C 423.93326,-124.66247 427.7614,-119.87346 432.06614,-132.79535 C 436.37088,-145.71725 433.50362,-149.54539 433.50362,-149.54539 L 264.15837,-149.77599 L 272.76015,-124.66247 z M 260.32254,-76.818406 L 273.72104,-90.209211 L 378.00327,-109.34991 C 378.00327,-109.34991 402.87849,-96.9123 393.31582,-87.341948 C 383.75317,-77.771598 379.44074,-82.076334 379.44074,-82.076334 L 273.61341,-66.179558 L 260.32254,-76.818406 z M 265.12693,146.62047 L 416.16936,146.10544 L 426.26243,156.1985 L 415.78501,166.67592 L 267.96345,170.02747 C 267.96345,170.02747 257.43991,172.04916 257.43991,159.50393 C 257.43991,146.9587 265.12693,146.62047 265.12693,146.62047 z M 262.82082,211.24531 L 353.22028,194.03406 L 347.38583,212.12933 L 328.25282,223.60606 L 266.92569,227.89542 C 266.92569,227.88773 255.61807,215.39631 262.82082,211.24531 z M 266.32611,17.693615 C 277.2955,22.551817 334.11801,30.838435 320.35823,51.093756 C 310.84939,65.099523 280.19351,44.436789 269.62385,39.855319 C 263.62027,37.257104 256.57896,35.327659 251.09042,31.929993 C 259.23867,30.392587 261.36797,19.523128 257.48602,13.119833 C 260.33791,14.841728 263.29742,16.348385 266.32611,17.693615 z M 254.11911,348.48185 C 254.11911,348.48185 377.84953,354.40854 378.20313,354.43161 C 384.49112,354.7314 396.56745,351.13387 396.67506,342.24767 C 396.86724,325.78973 367.3721,328.95679 358.22454,328.51094 C 341.92804,327.70381 325.63923,326.88899 309.34273,326.08953 C 304.73051,325.85892 248.36153,326.57381 247.42371,323.01472 L 254.11911,348.48185 z M 272.53723,407.30299 L 408.28247,407.30299 L 419.44404,407.30299 C 419.44404,407.30299 423.15687,412.09201 427.3463,399.16243 C 431.52804,386.25591 428.73766,382.42008 428.73766,382.42008 L 264.17374,382.18178 L 272.53723,407.30299 z "
               style="fill:#7dff00;stroke:#000000;stroke-width:1.00202358;stroke-miterlimit:4;stroke-dasharray:none;stroke-opacity:1"
               id="path139" />
            <path
               d="M 113.93845,-124.66247 L 277.54918,-124.66247 C 277.54918,-124.66247 285.68204,-122.7484 285.68204,-132.79535 C 285.68204,-142.8423 278.74835,-149.77599 278.74835,-149.77599 L 105.32898,-149.77599 C 105.32129,-149.77599 94.751619,-136.10846 113.93845,-124.66247 z M 273.61341,-66.187245 C 273.12913,-64.680587 257.67052,-62.751143 256.0793,-62.405226 C 243.14971,-59.607148 230.22013,-56.80907 217.29055,-54.018678 C 205.43715,-51.458898 193.69137,-49.291155 181.92253,-46.969672 C 173.95109,-45.409206 161.68258,-39.643934 155.89425,-48.568575 C 152.9578,-53.103922 152.65032,-61.021561 159.66858,-65.157183 C 159.66858,-65.157183 261.7677,-87.864667 275.88108,-90.478256 L 278.49468,-81.607425 C 278.50236,-81.599738 273.61341,-66.194932 273.61341,-66.187245 z M 110.97125,94.210302 L 245.89398,99.975569 C 245.89398,99.975569 252.51251,102.18175 252.94299,92.134804 C 253.36578,82.095543 247.94642,74.931233 247.94642,74.931233 L 104.93693,68.820045 C 104.94462,68.820045 95.651004,82.095543 110.97125,94.210302 z M 135.93872,173.85561 C 135.93872,173.85561 120.62616,177.68375 117.7589,165.24613 C 114.88395,152.80853 126.36838,152.80853 126.36838,152.80853 L 276.5806,146.10544 L 288.54162,158.07414 L 276.5806,170.03516 L 135.93872,173.85561 z M 199.08766,240.83269 C 199.08766,240.83269 187.60325,245.61402 187.60325,229.34828 C 187.60325,213.0902 193.82205,219.30132 193.82205,219.30132 L 284.69811,208.75472 L 291.41657,215.47318 L 281.84622,225.03585 L 199.08766,240.83269 z M 187.96454,2.2580612 C 183.99034,-5.144548 189.49425,-13.546471 201.23235,-12.954569 C 225.39268,-11.747706 243.6955,10.38325 266.87188,15.864102 C 272.87546,17.286203 256.23304,28.355524 254.58033,28.770624 C 245.25597,31.092107 239.94423,28.063418 231.5423,24.119972 C 219.10469,18.262455 205.35259,15.45669 193.62988,8.0463941 C 190.9471,6.3398733 189.07915,4.3335591 187.96454,2.2580612 z M 135.40832,342.97025 L 255.36441,348.73551 C 255.36441,348.73551 261.26036,350.93401 261.63702,340.89475 C 262.01368,330.8478 257.19392,323.69118 257.19392,323.69118 L 130.04278,317.57999 C 130.05046,317.57999 121.7869,330.85548 135.40832,342.97025 z M 118.19706,407.30299 L 277.18789,407.30299 C 277.18789,407.30299 285.09014,409.21706 285.09014,399.16243 C 285.09014,389.11548 278.34863,382.18178 278.34863,382.18178 L 109.82589,382.18178 C 109.82589,382.18947 99.556016,395.84932 118.19706,407.30299 z "
               style="fill:#ffbf00;stroke:#000000;stroke-width:1.00202358;stroke-miterlimit:4;stroke-dasharray:none;stroke-opacity:1"
               id="path135" />
            <path
               d="M 120.64299,-165.40542 C 111.16204,-146.80404 104.9786,-125.0416 110.42547,-104.25341 C 119.75753,-68.63172 161.45197,-11.117369 161.45197,-11.117369 C 161.45197,-11.117369 104.04524,-59.599461 96.388957,-122.11038 L 96.388957,-165.41249 M 428.58669,-165.42702 C 430.808,-160.32107 430.26414,-154.9077 424.89414,-149.5377 C 414.04775,-138.69899 389.79516,-127.29913 357.91706,-111.90201 C 326.03895,-96.4972 176.1342,-25.791908 145.51676,4.8255282 C 114.89932,35.442965 102.14655,49.487167 90.662122,92.849697 C 90.662122,92.849697 92.384022,118.80879 90.662122,142.60783 C 90.662122,142.60783 99.486837,204.15019 151.79706,232.20784 C 151.78938,232.20016 99.58676,185.96268 107.23536,143.8762 C 107.23536,143.8762 104.04524,120.27702 152.52733,71.794925 C 206.09823,18.22402 360.43072,-50.744004 381.51624,-57.700765 C 488.0354,-92.768991 431.90472,-106.80551 446.57925,-149.5377 C 446.57925,-149.5377 449.54099,-155.69078 440.45892,-165.39673 M 442.30811,427.08733 C 442.17374,416.65365 442.10271,406.88674 442.1054,395.64177 C 442.11308,376.53181 445.17253,361.36531 437.20876,346.04506 C 435.5253,342.8165 433.36525,339.57258 430.57485,336.2979 C 419.57472,323.33757 364.28961,288.27704 350.35302,288.83819 C 402.56333,321.83091 424.69428,348.036 426.48535,362.00333 C 428.23032,375.51713 416.27698,387.70875 411.81082,399.99262 C 408.92818,407.91795 410.34513,418.82039 410.06071,427.06857 M 104.36618,427.06096 C 104.51461,422.62477 101.15492,421.53937 109.13405,400.19249 C 111.76302,393.15886 114.99926,386.4327 118.96576,380.12166 C 125.06157,370.43601 133.23289,361.62666 141.30427,353.57835 C 168.7854,326.15871 203.23866,306.37999 239.27546,292.49721 C 345.15659,251.6714 398.73519,214.67373 398.73519,214.67373 C 398.73519,214.67373 437.0089,190.43653 447.21727,166.19164 C 447.21727,166.19164 439.561,127.92561 447.21727,106.2405 C 447.21727,106.2405 435.05639,86.807693 390.20258,62.163078 C 390.20258,62.163078 425.53216,84.555393 425.53216,106.2405 C 425.53216,127.92561 389.17252,163.01689 377.69579,163.01689 C 377.69579,163.01689 179.32431,260.58836 179.32431,260.59604 C 166.36398,266.97627 157.86213,278.52989 147.11566,288.13098 C 136.99185,297.17861 126.59899,306.07251 119.64991,317.93359 C 110.89438,332.87718 101.85443,347.98219 96.212163,364.4555 C 91.115655,379.35295 87.81508,411.87539 90.441197,427.03652"
               style="fill:#ff0000;stroke:#000000;stroke-width:1.00202358;stroke-miterlimit:4;stroke-dasharray:none;stroke-opacity:1"
               id="path149" />
          </g>
          <g
             transform="translate(-3.5447599,530.256)"
             id="g2858"
             style="stroke:#000000;stroke-width:1.00202358;stroke-miterlimit:4;stroke-dasharray:none;stroke-opacity:1">
            <path
               d="M 132.46534,427.10202 C 131.68895,403.2261 133.67105,384.44177 134.90866,360.63504 C 135.1854,355.46936 127.75973,352.18699 126.78347,349.11218 C 120.21106,328.31877 104.79857,355.66153 102.53858,363.00264 C 98.856499,374.93291 96.688759,388.43133 96.788682,400.95351 C 96.91168,415.85096 88.140706,412.41095 93.075769,426.97017"
               style="fill:#bf0000;stroke:#000000;stroke-width:1.00202358;stroke-miterlimit:4;stroke-dasharray:none;stroke-opacity:1"
               id="path2860" />
            <path
               d="M 99.980567,-165.39319 C 92.489863,-133.91412 94.64416,-80.4915 156.87819,-15.276052 C 218.45129,49.233495 376.0277,86.846127 413.30211,143.23817 C 431.23594,170.35801 434.24157,136.69651 434.89497,124.94304 C 435.53299,113.45094 440.83705,89.651894 396.19077,65.414691 C 344.03429,37.103364 204.82988,-40.458759 204.82988,-40.458759 C 204.82988,-40.458759 126.07611,-86.905479 114.08734,-165.42233 M 408.21329,390.71438 C 426.14713,417.83422 429.15275,384.17272 429.80616,372.41157 C 430.44417,360.91945 435.74823,337.13579 391.10197,312.89858 C 338.94547,284.58726 199.74106,207.01745 199.74106,207.01745 C 199.74106,207.01745 100.24016,148.34236 107.88875,51.378176 C 107.88875,51.378176 51.020115,126.60344 151.78938,232.20016 C 213.36248,296.71739 370.93889,334.31466 408.21329,390.71438 z "
               style="fill:#8f0000;stroke:#000000;stroke-width:1.00202358;stroke-miterlimit:4;stroke-dasharray:none;stroke-opacity:1"
               id="path2862" />
            <path
               d="M 244.47957,99.721905 C 244.47957,99.721905 383.64554,105.65629 384.04527,105.67166 C 391.11734,105.97145 404.70031,102.38161 404.82331,93.487721 C 405.03855,77.029792 371.86902,80.196848 361.57608,79.758687 C 343.25021,78.943862 324.92433,78.129037 306.59846,77.329586 C 301.4174,77.106662 238.01478,77.813868 236.95397,74.254774 L 244.47957,99.721905 z M 272.76015,-124.66247 L 412.44884,-124.66247 L 423.93326,-124.66247 C 423.93326,-124.66247 427.7614,-119.87346 432.06614,-132.79535 C 436.37088,-145.71725 433.50362,-149.54539 433.50362,-149.54539 L 264.15837,-149.77599 L 272.76015,-124.66247 z M 260.32254,-76.818406 L 273.72104,-90.209211 L 378.00327,-109.34991 C 378.00327,-109.34991 402.87849,-96.9123 393.31582,-87.341948 C 383.75317,-77.771598 379.44074,-82.076334 379.44074,-82.076334 L 273.61341,-66.179558 L 260.32254,-76.818406 z M 265.12693,146.62047 L 416.16936,146.10544 L 426.26243,156.1985 L 415.78501,166.67592 L 267.96345,170.02747 C 267.96345,170.02747 257.43991,172.04916 257.43991,159.50393 C 257.43991,146.9587 265.12693,146.62047 265.12693,146.62047 z M 262.82082,211.24531 L 353.22028,194.03406 L 347.38583,212.12933 L 328.25282,223.60606 L 266.92569,227.89542 C 266.92569,227.88773 255.61807,215.39631 262.82082,211.24531 z M 266.32611,17.693615 C 277.2955,22.551817 334.11801,30.838435 320.35823,51.093756 C 310.84939,65.099523 280.19351,44.436789 269.62385,39.855319 C 263.62027,37.257104 256.57896,35.327659 251.09042,31.929993 C 259.23867,30.392587 261.36797,19.523128 257.48602,13.119833 C 260.33791,14.841728 263.29742,16.348385 266.32611,17.693615 z M 254.11911,348.48185 C 254.11911,348.48185 377.84953,354.40854 378.20313,354.43161 C 384.49112,354.7314 396.56745,351.13387 396.67506,342.24767 C 396.86724,325.78973 367.3721,328.95679 358.22454,328.51094 C 341.92804,327.70381 325.63923,326.88899 309.34273,326.08953 C 304.73051,325.85892 248.36153,326.57381 247.42371,323.01472 L 254.11911,348.48185 z M 272.53723,407.30299 L 408.28247,407.30299 L 419.44404,407.30299 C 419.44404,407.30299 423.15687,412.09201 427.3463,399.16243 C 431.52804,386.25591 428.73766,382.42008 428.73766,382.42008 L 264.17374,382.18178 L 272.53723,407.30299 z "
               style="fill:#7dff00;stroke:#000000;stroke-width:1.00202358;stroke-miterlimit:4;stroke-dasharray:none;stroke-opacity:1"
               id="path2864" />
            <path
               d="M 113.93845,-124.66247 L 277.54918,-124.66247 C 277.54918,-124.66247 285.68204,-122.7484 285.68204,-132.79535 C 285.68204,-142.8423 278.74835,-149.77599 278.74835,-149.77599 L 105.32898,-149.77599 C 105.32129,-149.77599 94.751619,-136.10846 113.93845,-124.66247 z M 273.61341,-66.187245 C 273.12913,-64.680587 257.67052,-62.751143 256.0793,-62.405226 C 243.14971,-59.607148 230.22013,-56.80907 217.29055,-54.018678 C 205.43715,-51.458898 193.69137,-49.291155 181.92253,-46.969672 C 173.95109,-45.409206 161.68258,-39.643934 155.89425,-48.568575 C 152.9578,-53.103922 152.65032,-61.021561 159.66858,-65.157183 C 159.66858,-65.157183 261.7677,-87.864667 275.88108,-90.478256 L 278.49468,-81.607425 C 278.50236,-81.599738 273.61341,-66.194932 273.61341,-66.187245 z M 110.97125,94.210302 L 245.89398,99.975569 C 245.89398,99.975569 252.51251,102.18175 252.94299,92.134804 C 253.36578,82.095543 247.94642,74.931233 247.94642,74.931233 L 104.93693,68.820045 C 104.94462,68.820045 95.651004,82.095543 110.97125,94.210302 z M 135.93872,173.85561 C 135.93872,173.85561 120.62616,177.68375 117.7589,165.24613 C 114.88395,152.80853 126.36838,152.80853 126.36838,152.80853 L 276.5806,146.10544 L 288.54162,158.07414 L 276.5806,170.03516 L 135.93872,173.85561 z M 199.08766,240.83269 C 199.08766,240.83269 187.60325,245.61402 187.60325,229.34828 C 187.60325,213.0902 193.82205,219.30132 193.82205,219.30132 L 284.69811,208.75472 L 291.41657,215.47318 L 281.84622,225.03585 L 199.08766,240.83269 z M 187.96454,2.2580612 C 183.99034,-5.144548 189.49425,-13.546471 201.23235,-12.954569 C 225.39268,-11.747706 243.6955,10.38325 266.87188,15.864102 C 272.87546,17.286203 256.23304,28.355524 254.58033,28.770624 C 245.25597,31.092107 239.94423,28.063418 231.5423,24.119972 C 219.10469,18.262455 205.35259,15.45669 193.62988,8.0463941 C 190.9471,6.3398733 189.07915,4.3335591 187.96454,2.2580612 z M 135.40832,342.97025 L 255.36441,348.73551 C 255.36441,348.73551 261.26036,350.93401 261.63702,340.89475 C 262.01368,330.8478 257.19392,323.69118 257.19392,323.69118 L 130.04278,317.57999 C 130.05046,317.57999 121.7869,330.85548 135.40832,342.97025 z M 118.19706,407.30299 L 277.18789,407.30299 C 277.18789,407.30299 285.09014,409.21706 285.09014,399.16243 C 285.09014,389.11548 278.34863,382.18178 278.34863,382.18178 L 109.82589,382.18178 C 109.82589,382.18947 99.556016,395.84932 118.19706,407.30299 z "
               style="fill:#ffbf00;stroke:#000000;stroke-width:1.00202358;stroke-miterlimit:4;stroke-dasharray:none;stroke-opacity:1"
               id="path2866" />
            <path
               d="M 120.64299,-165.40542 C 111.16204,-146.80404 104.9786,-125.0416 110.42547,-104.25341 C 119.75753,-68.63172 161.45197,-11.117369 161.45197,-11.117369 C 161.45197,-11.117369 104.04524,-59.599461 96.388957,-122.11038 L 96.388957,-165.41249 M 428.58669,-165.42702 C 430.808,-160.32107 430.26414,-154.9077 424.89414,-149.5377 C 414.04775,-138.69899 389.79516,-127.29913 357.91706,-111.90201 C 326.03895,-96.4972 176.1342,-25.791908 145.51676,4.8255282 C 114.89932,35.442965 102.14655,49.487167 90.662122,92.849697 C 90.662122,92.849697 92.384022,118.80879 90.662122,142.60783 C 90.662122,142.60783 99.486837,204.15019 151.79706,232.20784 C 151.78938,232.20016 99.58676,185.96268 107.23536,143.8762 C 107.23536,143.8762 104.04524,120.27702 152.52733,71.794925 C 206.09823,18.22402 360.43072,-50.744004 381.51624,-57.700765 C 488.0354,-92.768991 431.90472,-106.80551 446.57925,-149.5377 C 446.57925,-149.5377 449.54099,-155.69078 440.45892,-165.39673 M 442.30811,427.08733 C 442.17374,416.65365 442.10271,406.88674 442.1054,395.64177 C 442.11308,376.53181 445.17253,361.36531 437.20876,346.04506 C 435.5253,342.8165 433.36525,339.57258 430.57485,336.2979 C 419.57472,323.33757 364.28961,288.27704 350.35302,288.83819 C 402.56333,321.83091 424.69428,348.036 426.48535,362.00333 C 428.23032,375.51713 416.27698,387.70875 411.81082,399.99262 C 408.92818,407.91795 410.34513,418.82039 410.06071,427.06857 M 104.36618,427.06096 C 104.51461,422.62477 101.15492,421.53937 109.13405,400.19249 C 111.76302,393.15886 114.99926,386.4327 118.96576,380.12166 C 125.06157,370.43601 133.23289,361.62666 141.30427,353.57835 C 168.7854,326.15871 203.23866,306.37999 239.27546,292.49721 C 345.15659,251.6714 398.73519,214.67373 398.73519,214.67373 C 398.73519,214.67373 437.0089,190.43653 447.21727,166.19164 C 447.21727,166.19164 439.561,127.92561 447.21727,106.2405 C 447.21727,106.2405 435.05639,86.807693 390.20258,62.163078 C 390.20258,62.163078 425.53216,84.555393 425.53216,106.2405 C 425.53216,127.92561 389.17252,163.01689 377.69579,163.01689 C 377.69579,163.01689 179.32431,260.58836 179.32431,260.59604 C 166.36398,266.97627 157.86213,278.52989 147.11566,288.13098 C 136.99185,297.17861 126.59899,306.07251 119.64991,317.93359 C 110.89438,332.87718 101.85443,347.98219 96.212163,364.4555 C 91.115655,379.35295 87.81508,411.87539 90.441197,427.03652"
               style="fill:#ff0000;stroke:#000000;stroke-width:1.00202358;stroke-miterlimit:4;stroke-dasharray:none;stroke-opacity:1"
               id="path2868" />
          </g>
        </g>
        <text
           xml:space="preserve"
           style="font-size:12px;font-style:normal;font-weight:normal;fill:#000000;fill-opacity:1;stroke:none;stroke-width:1px;stroke-linecap:butt;stroke-linejoin:miter;stroke-opacity:1;font-family:Bitstream Vera Sans"
           x="198.28416"
           y="218.92392"
           id="text2897"><tspan
             sodipodi:role="line"
             id="tspan2899"
             x="198.28416"
             y="218.92392"
             style="font-size:144px;fill:#000080">M lV s</tspan></text>
        <path
           sodipodi:type="arc"
           style="fill:#000080;fill-opacity:1;stroke:#000000;stroke-width:0.062;stroke-miterlimit:4;stroke-dasharray:none;stroke-opacity:1"
           id="path4857"
           sodipodi:cx="527.14569"
           sodipodi:cy="131.87233"
           sodipodi:rx="11.284464"
           sodipodi:ry="11.284464"
           d="M 538.43015 131.87233 A 11.284464 11.284464 0 1 1  515.86123,131.87233 A 11.284464 11.284464 0 1 1  538.43015 131.87233 z" />
      </g>
      <g
         id="g2692">
        <g
           style="font-size:12px;font-style:normal;font-weight:normal;fill:#aa0000;fill-opacity:1;stroke:none;stroke-width:1px;stroke-linecap:butt;stroke-linejoin:miter;stroke-opacity:1;font-family:Bitstream Vera Sans"
           id="g2694">
          <path
             d="M 186.45692,72.027054 L 216.97255,72.027054 L 224.04362,79.098122 L 193.52799,79.098122 L 186.45692,72.027054 z "
             id="path2696" />
          <path
             d="M 216.97255,72.027054 C 233.19123,72.027159 245.42559,75.472468 253.67567,82.362991 L 260.74674,89.434059 C 252.49666,82.543536 240.2623,79.098227 224.04362,79.098122 L 216.97255,72.027054 z "
             id="path2698" />
          <path
             d="M 253.67567,82.362991 C 254.47934,83.025921 255.24409,83.720297 255.96991,84.446119 L 263.04098,91.517187 C 262.31515,90.791365 261.55041,90.096989 260.74674,89.434059 L 253.67567,82.362991 z "
             id="path2700" />
          <path
             d="M 255.96991,84.446119 C 262.7372,91.213416 266.12089,100.71434 266.12099,112.94893 L 273.19206,120.02 C 273.19196,107.78541 269.80827,98.284483 263.04098,91.517187 L 255.96991,84.446119 z "
             id="path2702" />
          <path
             d="M 266.12099,112.94893 C 266.12088,121.90211 264.55057,130.5271 261.41005,138.82393 L 268.48112,145.895 C 271.62164,137.59817 273.19195,128.97318 273.19206,120.02 L 266.12099,112.94893 z "
             id="path2704" />
          <path
             d="M 261.41005,138.82393 C 258.26933,147.07396 253.9334,154.03489 248.40224,159.70674 L 255.47331,166.77781 C 261.00447,161.10596 265.3404,154.14503 268.48112,145.895 L 261.41005,138.82393 z "
             id="path2706" />
          <path
             d="M 248.40224,159.70674 C 242.82403,165.51925 235.74591,169.85519 227.16786,172.71455 L 234.23893,179.78562 C 242.81698,176.92626 249.8951,172.59032 255.47331,166.77781 L 248.40224,159.70674 z "
             id="path2708" />
          <path
             d="M 227.16786,172.71455 C 218.58968,175.57393 208.44125,177.00362 196.72255,177.00362 L 203.79362,184.07469 C 215.51232,184.07469 225.66075,182.645 234.23893,179.78562 L 227.16786,172.71455 z "
             id="path2710" />
          <path
             d="M 196.72255,177.00362 L 165.99599,177.00362 L 173.06706,184.07469 L 203.79362,184.07469 L 196.72255,177.00362 z "
             id="path2712" />
          <path
             d="M 165.99599,177.00362 L 186.45692,72.027054 L 193.52799,79.098122 L 173.06706,184.07469 L 165.99599,177.00362 z "
             id="path2714" />
          <path
             d="M 198.41005,83.698929 L 182.58974,165.33174 L 189.66081,172.40281 L 205.48112,90.769997 L 198.41005,83.698929 z "
             id="path2716" />
          <path
             d="M 182.58974,165.33174 L 201.15224,165.33174 L 208.22331,172.40281 L 189.66081,172.40281 L 182.58974,165.33174 z "
             id="path2718" />
          <path
             d="M 201.15224,165.33174 C 217.04281,165.33175 229.34748,160.76145 238.0663,151.6208 L 245.13737,158.69187 C 236.41855,167.83252 224.11388,172.40282 208.22331,172.40281 L 201.15224,165.33174 z "
             id="path2720" />
          <path
             d="M 238.0663,151.6208 C 246.78496,142.48021 251.14434,129.5896 251.14442,112.94893 L 258.21549,120.02 C 258.21541,136.66067 253.85603,149.55128 245.13737,158.69187 L 238.0663,151.6208 z "
             id="path2722" />
          <path
             d="M 251.14442,112.94893 C 251.14435,103.72846 248.79013,96.764058 244.08177,92.055699 L 251.15284,99.126766 C 255.8612,103.83513 258.21541,110.79953 258.21549,120.02 L 251.14442,112.94893 z "
             id="path2724" />
          <path
             d="M 244.08177,92.055699 C 243.64385,91.61778 243.18557,91.199377 242.70692,90.800491 L 249.77799,97.871559 C 250.25664,98.270445 250.71492,98.688848 251.15284,99.126766 L 244.08177,92.055699 z "
             id="path2726" />
          <path
             d="M 242.70692,90.800491 C 237.08185,86.066207 228.26936,83.699022 216.26942,83.698929 L 223.34049,90.769997 C 235.34043,90.77009 244.15292,93.137275 249.77799,97.871559 L 242.70692,90.800491 z "
             id="path2728" />
          <path
             d="M 216.26942,83.698929 L 198.41005,83.698929 L 205.48112,90.769997 L 223.34049,90.769997 L 216.26942,83.698929 z "
             id="path2730" />
        </g>
        <path
           id="text2233"
           d="M 186.45692,72.027054 L 216.97255,72.027054 C 233.19123,72.027159 245.42559,75.472468 253.67567,82.362991 C 261.97245,89.206829 266.12088,99.402131 266.12099,112.94893 C 266.12088,121.90211 264.55057,130.5271 261.41005,138.82393 C 258.26933,147.07396 253.9334,154.03489 248.40224,159.70674 C 242.82403,165.51925 235.74591,169.85519 227.16786,172.71455 C 218.58968,175.57393 208.44125,177.00362 196.72255,177.00362 L 165.99599,177.00362 L 186.45692,72.027054 M 198.41005,83.698929 L 182.58974,165.33174 L 201.15224,165.33174 C 217.04281,165.33175 229.34748,160.76145 238.0663,151.6208 C 246.78496,142.48021 251.14434,129.5896 251.14442,112.94893 C 251.14434,102.87088 248.33184,95.488073 242.70692,90.800491 C 237.08185,86.066207 228.26936,83.699022 216.26942,83.698929 L 198.41005,83.698929"
           style="font-size:12px;font-style:normal;font-weight:normal;fill:#aa0000;fill-opacity:1;stroke:none;stroke-width:1px;stroke-linecap:butt;stroke-linejoin:miter;stroke-opacity:1;font-family:Bitstream Vera Sans" />
      </g>
    </g>
  </g>
</svg>
